<svg width="59" height="47" viewBox="0 0 59 47" fill="none" xmlns="http://www.w3.org/2000/svg">
<path fill-rule="evenodd" clip-rule="evenodd" d="M21.7052 1.26002C20.9883 1.1832 20.2976 1.55396 19.9655 2.19393L1.44865 37.8727C0.880021 38.9684 1.59398 40.2925 2.82185 40.4196L14.2311 41.5998L18.7438 33.0758L27.052 35.1529L30.42 42.7308C30.8082 43.6043 31.6221 44.2135 32.5695 44.3398L44.4299 45.9212C44.9582 45.9917 45.3894 45.5039 45.2546 44.9881L34.4803 3.76487C34.2965 3.06133 33.6967 2.54482 32.9736 2.46735L21.7052 1.26002ZM19.5217 1.9636C19.9487 1.14079 20.8367 0.664101 21.7585 0.762861L33.0269 1.97019C33.9565 2.06979 34.7277 2.73389 34.9641 3.63843L45.7384 44.8617C45.963 45.7213 45.2444 46.5342 44.3638 46.4168L32.5034 44.8355C31.3837 44.6862 30.4219 43.9662 29.9631 42.9339L26.6942 35.5788L19.0024 33.6559L14.5151 42.1319L2.7704 40.9169C1.1917 40.7536 0.273763 39.0511 1.00486 37.6424L19.5217 1.9636ZM25.2102 9.13641L18.4579 21.2226L18.4494 21.2344C18.129 21.6779 18.3763 22.3032 18.9113 22.4091L27.0391 23.3614L27.0476 23.363C27.0723 23.3676 27.0994 23.3727 27.1288 23.3783C27.5047 23.4493 28.2475 23.5895 28.9061 23.6447C29.265 23.6747 29.5758 23.6772 29.7832 23.6389C29.8676 23.6232 29.9159 23.6041 29.9402 23.5905L27.4758 9.85343C27.4567 9.71977 27.3578 9.56314 27.1625 9.40748C26.9712 9.25508 26.7136 9.12532 26.438 9.04052C26.1619 8.95557 25.884 8.92069 25.6548 8.94367C25.4295 8.96625 25.2856 9.03987 25.2102 9.13641ZM27.9702 9.77796C27.9243 9.46845 27.7177 9.21063 27.4741 9.01645C27.225 8.81802 26.9086 8.66219 26.585 8.56263C26.262 8.46323 25.9158 8.415 25.6049 8.44616C25.2977 8.47695 24.9874 8.59041 24.7973 8.85363L24.7888 8.8654L18.0352 20.9541C17.5121 21.6962 17.9313 22.7341 18.827 22.9021L18.8355 22.9037L26.9639 23.856C26.9862 23.8602 27.0107 23.8648 27.0372 23.8698C27.4111 23.9405 28.1783 24.0855 28.8644 24.1429C29.231 24.1736 29.5975 24.1816 29.8741 24.1305C30.0098 24.1054 30.1543 24.061 30.2654 23.9728C30.393 23.8714 30.4646 23.7197 30.439 23.5404L27.9702 9.77796ZM47.6231 18.6159C47.6231 17.5113 48.5185 16.6159 49.6231 16.6159H51.6231C52.7277 16.6159 53.6231 17.5113 53.6231 18.6159C53.6231 19.4443 54.2947 20.1159 55.1231 20.1159H56.6231C57.7277 20.1159 58.6231 21.0113 58.6231 22.1159C58.6231 23.2204 57.7277 24.1159 56.6231 24.1159H55.3731C54.4066 24.1159 53.6231 24.8994 53.6231 25.8659V27.8659C53.6231 29.1085 52.6157 30.1159 51.3731 30.1159C50.1305 30.1159 49.1231 29.1085 49.1231 27.8659V27.6559C49.1231 26.7642 48.4526 26.0151 47.5663 25.9166L46.6246 25.812C45.4851 25.6854 44.6231 24.7223 44.6231 23.5758V21.8659C44.6231 20.8994 45.4066 20.1159 46.3731 20.1159C47.0634 20.1159 47.6231 19.5562 47.6231 18.8659V18.6159ZM49.6231 17.1159C48.7947 17.1159 48.1231 17.7874 48.1231 18.6159V18.8659C48.1231 19.8324 47.3396 20.6159 46.3731 20.6159C45.6827 20.6159 45.1231 21.1755 45.1231 21.8659V23.5758C45.1231 24.4675 45.7936 25.2166 46.6798 25.3151L47.6216 25.4197C48.761 25.5463 49.6231 26.5095 49.6231 27.6559V27.8659C49.6231 28.8324 50.4066 29.6159 51.3731 29.6159C52.3396 29.6159 53.1231 28.8324 53.1231 27.8659V25.8659C53.1231 24.6232 54.1304 23.6159 55.3731 23.6159H56.6231C57.4515 23.6159 58.1231 22.9443 58.1231 22.1159C58.1231 21.2874 57.4515 20.6159 56.6231 20.6159H55.1231C54.0185 20.6159 53.1231 19.7204 53.1231 18.6159C53.1231 17.7874 52.4515 17.1159 51.6231 17.1159H49.6231Z" fill="black"/>
</svg>
