<svg width="59" height="47" viewBox="0 0 59 47" fill="none" xmlns="http://www.w3.org/2000/svg">
<path d="M19.7436 2.07876L1.22676 37.7576C0.576895 39.0097 1.39284 40.5231 2.79613 40.6682L14.3731 41.8659L18.8731 33.3659L26.8731 35.3659L30.1915 42.8324C30.615 43.7852 31.5029 44.4498 32.5365 44.5876L44.3968 46.169C45.1013 46.263 45.6762 45.6126 45.4965 44.9249L34.7222 3.70164C34.5121 2.8976 33.8266 2.3073 33.0003 2.21877L21.7318 1.01143C20.9125 0.923646 20.1232 1.34737 19.7436 2.07876Z" stroke="black" stroke-width="0.5"/>
<path d="M51.6231 16.8659H49.6231C48.6566 16.8659 47.8731 17.6494 47.8731 18.6159V18.8659C47.8731 19.6943 47.2015 20.3659 46.3731 20.3659C45.5447 20.3659 44.8731 21.0374 44.8731 21.8659V23.5758C44.8731 24.5949 45.6394 25.451 46.6522 25.5635L47.594 25.6682C48.6068 25.7807 49.3731 26.6368 49.3731 27.6559V27.8659C49.3731 28.9704 50.2685 29.8659 51.3731 29.8659C52.4777 29.8659 53.3731 28.9704 53.3731 27.8659V25.8659C53.3731 24.7613 54.2685 23.8659 55.3731 23.8659H56.6231C57.5896 23.8659 58.3731 23.0823 58.3731 22.1159C58.3731 21.1494 57.5896 20.3659 56.6231 20.3659H55.1231C54.1566 20.3659 53.3731 19.5823 53.3731 18.6159C53.3731 17.6494 52.5896 16.8659 51.6231 16.8659Z" stroke="black" stroke-width="0.5"/>
</svg>
