<svg width="85" height="56" viewBox="0 0 85 56" fill="none" xmlns="http://www.w3.org/2000/svg">
<path d="M54.9946 13.6046C54.9255 13.7242 54.9665 13.8771 55.086 13.9461C55.2056 14.0152 55.3585 13.9743 55.4276 13.8547L54.9946 13.6046ZM66.7251 1.04152C66.748 0.905369 66.6562 0.776405 66.5201 0.753472L64.3013 0.379767C64.1652 0.356835 64.0362 0.448618 64.0133 0.584772C63.9903 0.720925 64.0821 0.84989 64.2183 0.872822L66.1905 1.205L65.8583 3.17723C65.8354 3.31338 65.9271 3.44234 66.0633 3.46528C66.1995 3.48821 66.3284 3.39642 66.3514 3.26027L66.7251 1.04152ZM63.5 19.1093C63.362 19.1093 63.25 19.2212 63.25 19.3593C63.25 19.4974 63.362 19.6093 63.5 19.6093L63.5 19.1093ZM84.1683 25.5681C84.3027 25.5367 84.3862 25.4022 84.3547 25.2677L83.8419 23.077C83.8104 22.9425 83.6759 22.8591 83.5415 22.8905C83.407 22.922 83.3236 23.0565 83.355 23.1909L83.8109 25.1383L81.8635 25.5941C81.7291 25.6256 81.6456 25.7601 81.6771 25.8945C81.7086 26.029 81.8431 26.1124 81.9775 26.081L84.1683 25.5681ZM11.631 35.0722C11.7486 34.9998 11.7853 34.8458 11.7129 34.7283C11.6406 34.6107 11.4866 34.574 11.369 34.6464L11.631 35.0722ZM0.76254 47.4375C0.80572 47.5686 0.947039 47.6399 1.07818 47.5968L3.21532 46.8931C3.34647 46.8499 3.41778 46.7086 3.3746 46.5775C3.33142 46.4463 3.1901 46.375 3.05896 46.4182L1.15928 47.0436L0.533803 45.144C0.490623 45.0128 0.349305 44.9415 0.218159 44.9847C0.0870137 45.0279 0.0157034 45.1692 0.0588833 45.3003L0.76254 47.4375ZM26.4813 13.4016C26.5231 13.5332 26.6636 13.606 26.7952 13.5643C26.9268 13.5225 26.9997 13.382 26.9579 13.2504L26.4813 13.4016ZM20.0083 1.68798C19.8703 1.68343 19.7547 1.7916 19.7502 1.9296L19.6759 4.17837C19.6714 4.31637 19.7796 4.43193 19.9175 4.43649C20.0555 4.44104 20.1711 4.33287 20.1757 4.19487L20.2416 2.19596L22.2406 2.26194C22.3786 2.26649 22.4941 2.15832 22.4987 2.02032C22.5032 1.88233 22.395 1.76677 22.257 1.76221L20.0083 1.68798ZM54.1423 44.1146C54.0288 44.036 53.8731 44.0643 53.7945 44.1778C53.7159 44.2914 53.7442 44.4471 53.8577 44.5257L54.1423 44.1146ZM65.6361 55.2424C65.7736 55.2547 65.895 55.1532 65.9074 55.0157L66.1081 52.7746C66.1204 52.6371 66.0189 52.5157 65.8814 52.5033C65.7439 52.491 65.6224 52.5925 65.6101 52.73L65.4317 54.7221L63.4396 54.5437C63.3021 54.5313 63.1806 54.6328 63.1683 54.7704C63.156 54.9079 63.2575 55.0293 63.395 55.0417L65.6361 55.2424ZM39.5 37.8593H39.75V37.2557L39.3232 37.6825L39.5 37.8593ZM39 38.3593L38.8232 38.1825L38.3965 38.6093H39V38.3593ZM32.7932 50.0605L32.9723 50.2349L32.9723 50.2349L32.7932 50.0605ZM28.8711 49.0663L28.6305 49.1342L28.6305 49.1342L28.8711 49.0663ZM27.8358 45.4015L28.0764 45.3336L28.0764 45.3336L27.8358 45.4015ZM30.6579 42.502L30.5965 42.7444L30.5965 42.7444L30.6579 42.502ZM34.3493 43.4378L34.4108 43.1955L34.4108 43.1955L34.3493 43.4378ZM35.4493 47.3316L35.2701 47.1572L35.2701 47.1572L35.4493 47.3316ZM28.5 43.8593L28.2519 43.8288L28.2308 44.0005L28.384 44.0808L28.5 43.8593ZM31.5 32.8593L31.7497 32.8712L31.754 32.7813L31.7 32.7093L31.5 32.8593ZM37.5 34.8593L37.5405 35.106L37.5507 35.1043L37.5607 35.1018L37.5 34.8593ZM31.5 27.8593L31.421 27.6221L31.3892 27.6327L31.3613 27.6513L31.5 27.8593ZM33 27.3593L33.2426 27.2987L33.1771 27.0368L32.921 27.1221L33 27.3593ZM33.5 29.3593L33.2575 29.4199L33.3435 29.7641L33.6387 29.5673L33.5 29.3593ZM35 28.3593H35.25V27.8922L34.8613 28.1513L35 28.3593ZM35 30.3593H34.75V30.7034L35.0773 30.5971L35 30.3593ZM37.5 29.5468H37.75V29.2027L37.4227 29.309L37.5 29.5468ZM37.5 31.3593H37.25V31.5711L37.4589 31.6059L37.5 31.3593ZM40.5 31.8593L40.75 31.8649L40.7549 31.6483L40.5411 31.6127L40.5 31.8593ZM39.5 34.3593L39.5607 34.6018L39.647 34.5802L39.7003 34.5089L39.5 34.3593ZM41.7755 14.8322C41.7402 14.9657 41.8198 15.1025 41.9533 15.1378C42.0868 15.1731 42.2236 15.0935 42.2589 14.96L41.7755 14.8322ZM44.3388 9.59751C44.4142 9.48181 44.3814 9.32693 44.2657 9.25159C44.15 9.17624 43.9952 9.20895 43.9198 9.32465L44.3388 9.59751ZM30.4031 8.83105C30.3367 8.71001 30.1847 8.66576 30.0637 8.7322C29.9427 8.79864 29.8984 8.95062 29.9648 9.07166L30.4031 8.83105ZM31.3817 12.9533C31.391 13.091 31.5102 13.1951 31.648 13.1858C31.7857 13.1764 31.8898 13.0572 31.8805 12.9194L31.3817 12.9533ZM19.7326 14.811C19.6135 14.7412 19.4603 14.7812 19.3905 14.9003C19.3207 15.0195 19.3607 15.1726 19.4798 15.2424L19.7326 14.811ZM23.4147 18.284C23.501 18.3918 23.6583 18.4093 23.7661 18.323C23.8739 18.2367 23.8913 18.0794 23.805 17.9716L23.4147 18.284ZM17.2153 29.3681C17.1117 29.4593 17.1016 29.6173 17.1929 29.7209C17.2841 29.8245 17.4421 29.8346 17.5457 29.7434L17.2153 29.3681ZM20.6716 27.8156C20.8057 27.7829 20.8881 27.6477 20.8554 27.5136C20.8228 27.3794 20.6876 27.2971 20.5534 27.3297L20.6716 27.8156ZM48.9736 20.9382C48.8456 20.99 48.7839 21.1357 48.8357 21.2637C48.8875 21.3917 49.0332 21.4534 49.1612 21.4016L48.9736 20.9382ZM54.6996 19.8498C54.8374 19.8407 54.9417 19.7217 54.9326 19.5839C54.9235 19.4461 54.8044 19.3418 54.6667 19.3509L54.6996 19.8498ZM52.9743 30.3609C52.837 30.3751 52.7372 30.498 52.7513 30.6353C52.7655 30.7726 52.8884 30.8725 53.0257 30.8583L52.9743 30.3609ZM58.7772 30.9073C58.9121 30.9369 59.0454 30.8515 59.0749 30.7166C59.1045 30.5817 59.0191 30.4485 58.8842 30.4189L58.7772 30.9073ZM47.7814 38.6726C47.6564 38.614 47.5076 38.6679 47.449 38.793C47.3905 38.918 47.4443 39.0668 47.5694 39.1254L47.7814 38.6726ZM50.3066 41.264C50.372 41.3856 50.5237 41.4311 50.6452 41.3656C50.7668 41.3002 50.8123 41.1486 50.7469 41.027L50.3066 41.264ZM55.4276 13.8547C58.9985 7.67329 61.432 4.89842 66.6235 1.20368L66.3336 0.796318C61.076 4.53813 58.5963 7.36991 54.9946 13.6046L55.4276 13.8547ZM63.5 19.6093C67.9029 19.6093 71.3374 20.0483 74.5093 21.0055C77.6819 21.9628 80.6039 23.4421 83.9795 25.5371L84.2431 25.1123C80.8476 23.0049 77.884 21.5015 74.6538 20.5268C71.4229 19.5518 67.9373 19.1093 63.5 19.1093L63.5 19.6093ZM11.369 34.6464C8.11365 36.6497 6.37202 37.9804 4.98853 39.7349C3.61354 41.4786 2.59934 43.6349 0.776806 47.2467L1.22319 47.4719C3.06021 43.8314 4.04602 41.7377 5.38115 40.0445C6.70778 38.3621 8.38638 37.0689 11.631 35.0722L11.369 34.6464ZM26.9579 13.2504C25.3217 8.09309 23.5155 5.32753 20.1825 1.767L19.8175 2.10869C23.1055 5.62112 24.8701 8.32309 26.4813 13.4016L26.9579 13.2504ZM53.8577 44.5257C57.0908 46.764 59.9936 49.421 62.0898 51.5209C63.1373 52.5703 63.9823 53.4795 64.5651 54.1259C64.8565 54.4491 65.0823 54.7065 65.235 54.883C65.3114 54.9712 65.3695 55.0391 65.4084 55.0849C65.4278 55.1077 65.4425 55.1251 65.4522 55.1366C65.4571 55.1424 65.4607 55.1467 65.4631 55.1496C65.4643 55.151 65.4652 55.1521 65.4657 55.1527C65.466 55.1531 65.4662 55.1533 65.4664 55.1535C65.4664 55.1536 65.4665 55.1536 65.4665 55.1537C65.4665 55.1537 65.4665 55.1537 65.6584 54.9934C65.8502 54.8331 65.8502 54.833 65.8501 54.8329C65.8501 54.8329 65.85 54.8328 65.8499 54.8327C65.8497 54.8325 65.8494 54.8322 65.8491 54.8317C65.8484 54.8309 65.8474 54.8297 65.8461 54.8282C65.8435 54.8251 65.8396 54.8205 65.8345 54.8144C65.8244 54.8023 65.8092 54.7845 65.7893 54.761C65.7495 54.7142 65.6904 54.6451 65.613 54.5557C65.4583 54.3769 65.2303 54.1169 64.9365 53.7911C64.349 53.1394 63.4981 52.224 62.4436 51.1676C60.3357 49.0559 57.4092 46.3763 54.1423 44.1146L53.8577 44.5257ZM39.3232 37.6825L38.8232 38.1825L39.1768 38.5361L39.6768 38.0361L39.3232 37.6825ZM39 38.6093H39.5V38.1093H39V38.6093ZM39.75 38.3593V37.8593H39.25V38.3593H39.75ZM26.25 28.8593C26.25 23.1984 30.8391 18.6093 36.5 18.6093V18.1093C30.563 18.1093 25.75 22.9222 25.75 28.8593H26.25ZM36.5 18.6093C42.1609 18.6093 46.75 23.1984 46.75 28.8593H47.25C47.25 22.9222 42.4371 18.1093 36.5 18.1093V18.6093ZM46.75 28.8593C46.75 30.9784 45.7804 33.1744 44.3687 34.9074C42.9541 36.6439 41.1304 37.8738 39.4647 38.1118L39.5354 38.6068C41.3696 38.3447 43.2959 37.016 44.7564 35.2232C46.2197 33.4268 47.25 31.1228 47.25 28.8593H46.75ZM28.6934 35.2009C27.2696 33.4625 26.25 31.2701 26.25 28.8593H25.75C25.75 31.4138 26.8297 33.7146 28.3066 35.5177L28.6934 35.2009ZM32.614 49.8862C31.494 51.0369 29.5482 50.5437 29.1117 48.9983L28.6305 49.1342C29.1717 51.05 31.5838 51.6615 32.9723 50.2349L32.614 49.8862ZM29.1117 48.9983L28.0764 45.3336L27.5952 45.4695L28.6305 49.1342L29.1117 48.9983ZM28.0764 45.3336C27.6399 43.7882 29.0399 42.3498 30.5965 42.7444L30.7194 42.2597C28.7897 41.7705 27.054 43.5537 27.5952 45.4695L28.0764 45.3336ZM30.5965 42.7444L34.2879 43.6802L34.4108 43.1955L30.7194 42.2597L30.5965 42.7444ZM34.2879 43.6802C35.8445 44.0748 36.3902 46.0065 35.2701 47.1572L35.6284 47.506C37.017 46.0794 36.3405 43.6847 34.4108 43.1955L34.2879 43.6802ZM35.2701 47.1572L32.614 49.8862L32.9723 50.2349L35.6284 47.506L35.2701 47.1572ZM28.2508 34.8787C28.6064 39.4526 28.5645 41.2821 28.2519 43.8288L28.7482 43.8897C29.0662 41.2988 29.1064 39.4336 28.7493 34.8399L28.2508 34.8787ZM39.34 38.1672C36.2774 40.7194 36.1514 43.147 35.2693 45.2631L35.7308 45.4555C36.6664 43.211 36.7227 40.9992 39.6601 38.5513L39.34 38.1672ZM28.384 44.0808C30.8681 45.3817 32.9394 46.192 35.5081 46.1092L35.492 45.6094C33.0535 45.688 31.0755 44.9259 28.616 43.6378L28.384 44.0808ZM28.384 45.5808C29.632 46.2343 30.6524 46.6394 31.6838 46.869C32.7151 47.0986 33.7452 47.1499 35.0081 47.1092L34.992 46.6094C33.7513 46.6494 32.7672 46.598 31.7924 46.381C30.8176 46.164 29.8398 45.7787 28.616 45.1378L28.384 45.5808ZM28.8974 47.5873C30.8358 48.4598 32.0464 48.6552 34.0069 48.6009L33.9931 48.1011C32.102 48.1535 30.967 47.9705 29.1026 47.1313L28.8974 47.5873ZM31.2497 43.3712L31.7497 32.8712L31.2503 32.8474L30.7503 43.3474L31.2497 43.3712ZM33.7486 43.8863C34.0912 40.7304 34.4547 38.6201 35.0357 37.2489C35.324 36.5684 35.6603 36.0842 36.0621 35.746C36.4621 35.4093 36.9423 35.2042 37.5405 35.106L37.4595 34.6126C36.7894 34.7226 36.2211 34.9586 35.7401 35.3635C35.2611 35.7667 34.8844 36.3244 34.5753 37.0538C33.9616 38.5024 33.5934 40.6838 33.2515 43.8323L33.7486 43.8863ZM31.5 32.8593C31.7 32.7093 31.7 32.7093 31.7 32.7093C31.7 32.7093 31.7 32.7093 31.7 32.7093C31.7 32.7093 31.7 32.7092 31.6999 32.7091C31.6998 32.7089 31.6995 32.7086 31.6992 32.7082C31.6986 32.7074 31.6976 32.7061 31.6963 32.7043C31.6937 32.7007 31.6896 32.6953 31.6844 32.6882C31.6738 32.6738 31.6581 32.6525 31.6381 32.6248C31.5979 32.5694 31.5404 32.4888 31.4712 32.3889C31.3327 32.1888 31.1483 31.9122 30.9644 31.6057C30.78 31.2983 30.5987 30.9653 30.4642 30.6514C30.327 30.3314 30.25 30.0571 30.25 29.8593H29.75C29.75 30.1615 29.8605 30.5122 30.0046 30.8484C30.1514 31.1908 30.345 31.5452 30.5356 31.8629C30.7267 32.1814 30.9174 32.4673 31.0601 32.6735C31.1315 32.7767 31.1912 32.8601 31.2331 32.918C31.254 32.947 31.2706 32.9695 31.282 32.985C31.2877 32.9927 31.2921 32.9987 31.2951 33.0028C31.2967 33.0048 31.2978 33.0064 31.2986 33.0075C31.2991 33.008 31.2994 33.0084 31.2996 33.0087C31.2997 33.0089 31.2998 33.009 31.2999 33.0091C31.2999 33.0092 31.3 33.0092 31.3 33.0092C31.3 33.0093 31.3 33.0093 31.5 32.8593ZM30.25 29.8593C30.25 29.6708 30.3214 29.4658 30.4488 29.2535C30.5753 29.0427 30.7478 28.84 30.9268 28.6611C31.105 28.4829 31.2841 28.3335 31.4191 28.2285C31.4864 28.1762 31.5423 28.1352 31.5809 28.1076C31.6002 28.0939 31.6151 28.0835 31.625 28.0766C31.6299 28.0732 31.6336 28.0707 31.6359 28.0692C31.6371 28.0684 31.6379 28.0678 31.6384 28.0675C31.6386 28.0674 31.6387 28.0673 31.6388 28.0672C31.6388 28.0672 31.6388 28.0672 31.6388 28.0672C31.6388 28.0672 31.6388 28.0673 31.6388 28.0673C31.6387 28.0673 31.6387 28.0673 31.5 27.8593C31.3613 27.6513 31.3613 27.6513 31.3612 27.6514C31.3612 27.6514 31.3611 27.6514 31.3611 27.6515C31.361 27.6515 31.3608 27.6516 31.3607 27.6517C31.3604 27.6519 31.36 27.6522 31.3595 27.6525C31.3585 27.6532 31.3572 27.6541 31.3555 27.6552C31.3521 27.6575 31.3474 27.6607 31.3413 27.6649C31.3293 27.6732 31.312 27.6853 31.2903 27.7008C31.2468 27.7318 31.1855 27.7768 31.1122 27.8338C30.9659 27.9476 30.7701 28.1107 30.5732 28.3075C30.3772 28.5035 30.1747 28.7384 30.02 28.9963C29.8661 29.2528 29.75 29.5478 29.75 29.8593H30.25ZM31.5791 28.0965L33.0791 27.5965L32.921 27.1221L31.421 27.6221L31.5791 28.0965ZM32.7575 27.4199L33.2575 29.4199L33.7426 29.2987L33.2426 27.2987L32.7575 27.4199ZM33.6387 29.5673L35.1387 28.5673L34.8613 28.1513L33.3613 29.1513L33.6387 29.5673ZM34.75 28.3593V30.3593H35.25V28.3593H34.75ZM35.0773 30.5971L37.5773 29.7846L37.4227 29.309L34.9227 30.1215L35.0773 30.5971ZM37.25 29.5468V31.3593H37.75V29.5468H37.25ZM37.4589 31.6059L40.4589 32.1059L40.5411 31.6127L37.5411 31.1127L37.4589 31.6059ZM40.2501 31.8536C40.2379 32.3953 40.0088 32.9794 39.768 33.4434C39.6493 33.6722 39.5312 33.8652 39.4429 34.0008C39.3989 34.0684 39.3625 34.1215 39.3373 34.1573C39.3248 34.1752 39.315 34.1887 39.3086 34.1975C39.3054 34.202 39.303 34.2052 39.3015 34.2072C39.3008 34.2082 39.3003 34.209 39.3 34.2094C39.2998 34.2096 39.2997 34.2097 39.2997 34.2097C39.2997 34.2098 39.2997 34.2098 39.2997 34.2097C39.2997 34.2097 39.2997 34.2097 39.2997 34.2097C39.2997 34.2097 39.2998 34.2096 39.5 34.3593C39.7003 34.5089 39.7003 34.5089 39.7004 34.5089C39.7004 34.5088 39.7004 34.5088 39.7004 34.5087C39.7005 34.5086 39.7006 34.5085 39.7007 34.5084C39.7009 34.5081 39.7012 34.5078 39.7015 34.5073C39.7021 34.5065 39.703 34.5053 39.7041 34.5038C39.7063 34.5008 39.7094 34.4966 39.7133 34.4912C39.7211 34.4804 39.7323 34.4648 39.7464 34.4447C39.7746 34.4046 39.8144 34.3466 39.862 34.2735C39.957 34.1275 40.0839 33.9202 40.2118 33.6737C40.4642 33.1873 40.7351 32.5214 40.75 31.8649L40.2501 31.8536ZM39.4394 34.1168L37.4394 34.6168L37.5607 35.1018L39.5607 34.6018L39.4394 34.1168ZM42.2589 14.96C43.0097 12.1202 43.4623 10.9435 44.3388 9.59751L43.9198 9.32465C42.9991 10.7384 42.5303 11.9772 41.7755 14.8322L42.2589 14.96ZM29.9648 9.07166C30.9958 10.9498 31.3029 11.7916 31.3817 12.9533L31.8805 12.9194C31.7943 11.6476 31.4446 10.7282 30.4031 8.83105L29.9648 9.07166ZM19.4798 15.2424C21.6835 16.5337 22.544 17.1961 23.4147 18.284L23.805 17.9716C22.8762 16.8111 21.9519 16.1115 19.7326 14.811L19.4798 15.2424ZM17.5457 29.7434C18.9863 28.4751 19.6614 28.0612 20.6716 27.8156L20.5534 27.3297C19.4237 27.6045 18.6743 28.0836 17.2153 29.3681L17.5457 29.7434ZM49.1612 21.4016C51.8839 20.2992 53.0969 19.9557 54.6996 19.8498L54.6667 19.3509C52.9832 19.4621 51.7108 19.8299 48.9736 20.9382L49.1612 21.4016ZM53.0257 30.8583C55.9475 30.5562 57.2082 30.5634 58.7772 30.9073L58.8842 30.4189C57.2362 30.0577 55.9118 30.0573 52.9743 30.3609L53.0257 30.8583ZM47.5694 39.1254C48.413 39.5205 48.9748 39.8316 49.3878 40.1554C49.7938 40.4738 50.0617 40.8091 50.3066 41.264L50.7469 41.027C50.4733 40.5188 50.1627 40.1277 49.6963 39.7619C49.2367 39.4016 48.6322 39.071 47.7814 38.6726L47.5694 39.1254Z" fill="black"/>
</svg>
