<svg width="44" height="76" viewBox="0 0 44 76" fill="none" xmlns="http://www.w3.org/2000/svg">
<path d="M15.5 38L28 67.5C28 69.5 25.5 72 25.5 72C25.5 72 22.3717 72.5831 19.5 72L7.03184 41.5777M15.5 38L7.03184 41.5777M15.5 38L16.5 37.2174L15.5 35.2174L4.5 40L5.5 42L7.03184 41.5777M7 41.5L7.03184 41.5777M26.5497 29.9094L26.5617 30.0185M26.5617 30.0185L38.4926 28.5756M26.5617 30.0185L24.4846 29.9969L23.949 27.1232L39.4957 25.079L40.0313 27.9527L38.4926 28.5756M26.5617 30.0185L31.2615 72.7419C34.6599 74.5099 38.8011 74.905 38.8011 74.905C38.8011 74.905 42.8439 72.6648 43.5649 70.1516L38.4926 28.5756M15.5 61.5C18.2487 58.4011 23 57 23.5 57C24 57 19.9354 60.2269 15.5 61.5ZM1 27.5C1 28.8807 2.11929 30 3.5 30C4.88071 30 6 28.8807 6 27.5C6 26.1193 4.88071 25 3.5 25C2.11929 25 1 26.1193 1 27.5ZM6 20.5C6 21.3284 6.67157 22 7.5 22C8.32843 22 9 21.3284 9 20.5C9 19.6716 8.32843 19 7.5 19C6.67157 19 6 19.6716 6 20.5ZM10 28.5C10 29.3284 10.6716 30 11.5 30C12.3284 30 13 29.3284 13 28.5C13 27.6716 12.3284 27 11.5 27C10.6716 27 10 27.6716 10 28.5ZM7 34C7 34.5523 7.44772 35 8 35C8.55228 35 9 34.5523 9 34C9 33.4477 8.55228 33 8 33C7.44772 33 7 33.4477 7 34ZM25 4C25 5.65685 23.6569 7 22 7C20.3431 7 19 5.65685 19 4C19 2.34315 20.3431 1 22 1C23.6569 1 25 2.34315 25 4ZM31 3C31 3.55228 30.5523 4 30 4C29.4477 4 29 3.55228 29 3C29 2.44772 29.4477 2 30 2C30.5523 2 31 2.44772 31 3ZM28 10.5C28 11.3284 27.3284 12 26.5 12C25.6716 12 25 11.3284 25 10.5C25 9.67157 25.6716 9 26.5 9C27.3284 9 28 9.67157 28 10.5ZM36 11.5C36 12.8807 34.8807 14 33.5 14C32.1193 14 31 12.8807 31 11.5C31 10.1193 32.1193 9 33.5 9C34.8807 9 36 10.1193 36 11.5ZM31 24C31 24.5523 30.5523 25 30 25C29.4477 25 29 24.5523 29 24C29 23.4477 29.4477 23 30 23C30.5523 23 31 23.4477 31 24ZM32 19C32 20.1046 31.1046 21 30 21C28.8954 21 28 20.1046 28 19C28 17.8954 28.8954 17 30 17C31.1046 17 32 17.8954 32 19ZM36 19.5C36 20.3284 35.3284 21 34.5 21C33.6716 21 33 20.3284 33 19.5C33 18.6716 33.6716 18 34.5 18C35.3284 18 36 18.6716 36 19.5ZM27 15.5C27 16.3284 26.3284 17 25.5 17C24.6716 17 24 16.3284 24 15.5C24 14.6716 24.6716 14 25.5 14C26.3284 14 27 14.6716 27 15.5ZM28.5 48.5C30.0345 45.7448 31.5 44.5 40.5 45.5C38.3585 47.998 33 49 28.5 48.5Z" stroke="black" stroke-width="0.5"/>
</svg>
